<svg width="435" height="123" viewBox="0 0 435 123" fill="none" xmlns="http://www.w3.org/2000/svg">
<path d="M0.9375 6H36.75C43.75 6 49.8333 7.04167 55 9.125C60.1667 11.2083 64.1458 14.2917 66.9375 18.375C69.7708 22.4583 71.1875 27.5 71.1875 33.5C71.1875 38.7083 70.375 43.0625 68.75 46.5625C67.125 50.0625 64.8542 52.9583 61.9375 55.25C59.0625 57.5 55.7083 59.3542 51.875 60.8125L44.6875 64.875H14.625L14.5 47.9375H36.75C39.5417 47.9375 41.8542 47.4375 43.6875 46.4375C45.5208 45.4375 46.8958 44.0208 47.8125 42.1875C48.7708 40.3125 49.25 38.0833 49.25 35.5C49.25 32.875 48.7708 30.625 47.8125 28.75C46.8542 26.875 45.4375 25.4375 43.5625 24.4375C41.7292 23.4375 39.4583 22.9375 36.75 22.9375H22.875V97H0.9375V6ZM50.75 97L30.625 56.75L53.875 56.625L74.25 96.0625V97H50.75ZM116.188 98.25C110.688 98.25 105.771 97.3958 101.438 95.6875C97.1042 93.9375 93.4375 91.5417 90.4375 88.5C87.4792 85.4583 85.2083 81.9583 83.625 78C82.0833 74.0417 81.3125 69.8542 81.3125 65.4375V63.0625C81.3125 58.1042 82 53.5208 83.375 49.3125C84.75 45.0625 86.7917 41.3542 89.5 38.1875C92.2083 35.0208 95.6042 32.5625 99.6875 30.8125C103.771 29.0208 108.521 28.125 113.938 28.125C118.729 28.125 123.021 28.8958 126.812 30.4375C130.604 31.9792 133.812 34.1875 136.438 37.0625C139.104 39.9375 141.125 43.4167 142.5 47.5C143.917 51.5833 144.625 56.1667 144.625 61.25V69.8125H89.375V56.625H124.062V55C124.104 52.75 123.708 50.8333 122.875 49.25C122.083 47.6667 120.917 46.4583 119.375 45.625C117.833 44.7917 115.958 44.375 113.75 44.375C111.458 44.375 109.562 44.875 108.062 45.875C106.604 46.875 105.458 48.25 104.625 50C103.833 51.7083 103.271 53.6875 102.938 55.9375C102.604 58.1875 102.438 60.5625 102.438 63.0625V65.4375C102.438 67.9375 102.771 70.2083 103.438 72.25C104.146 74.2917 105.146 76.0417 106.438 77.5C107.771 78.9167 109.354 80.0208 111.188 80.8125C113.062 81.6042 115.188 82 117.562 82C120.438 82 123.271 81.4583 126.062 80.375C128.854 79.2917 131.25 77.5 133.25 75L142.812 86.375C141.438 88.3333 139.479 90.2292 136.938 92.0625C134.438 93.8958 131.438 95.3958 127.938 96.5625C124.438 97.6875 120.521 98.25 116.188 98.25ZM101.25 20.5625L113.625 0.9375H135.875L118.438 20.5625H101.25ZM174.438 42.375V123H153.375V29.375H173L174.438 42.375ZM215.938 62.375V63.6875C215.938 68.6042 215.375 73.1667 214.25 77.375C213.125 81.5833 211.458 85.25 209.25 88.375C207.042 91.5 204.292 93.9375 201 95.6875C197.75 97.3958 193.979 98.25 189.688 98.25C185.646 98.25 182.167 97.3542 179.25 95.5625C176.333 93.7708 173.896 91.2917 171.938 88.125C169.979 84.9583 168.396 81.3333 167.188 77.25C165.979 73.1667 165.021 68.8542 164.312 64.3125V62.625C165.021 57.75 165.979 53.2292 167.188 49.0625C168.396 44.8542 169.979 41.1875 171.938 38.0625C173.896 34.9375 176.312 32.5 179.188 30.75C182.104 29 185.583 28.125 189.625 28.125C193.917 28.125 197.688 28.9375 200.938 30.5625C204.229 32.1875 206.979 34.5208 209.188 37.5625C211.438 40.5625 213.125 44.1667 214.25 48.375C215.375 52.5833 215.938 57.25 215.938 62.375ZM194.875 63.6875V62.375C194.875 59.75 194.688 57.3542 194.312 55.1875C193.938 52.9792 193.333 51.0625 192.5 49.4375C191.708 47.8125 190.646 46.5625 189.312 45.6875C187.979 44.8125 186.333 44.375 184.375 44.375C182.125 44.375 180.229 44.7292 178.688 45.4375C177.188 46.1042 175.979 47.1458 175.062 48.5625C174.188 49.9375 173.562 51.6667 173.188 53.75C172.854 55.7917 172.708 58.1875 172.75 60.9375V66.0625C172.667 69.2292 172.979 72.0208 173.688 74.4375C174.396 76.8125 175.625 78.6667 177.375 80C179.125 81.3333 181.5 82 184.5 82C186.5 82 188.167 81.5417 189.5 80.625C190.833 79.6667 191.896 78.3542 192.688 76.6875C193.479 74.9792 194.042 73.0208 194.375 70.8125C194.708 68.6042 194.875 66.2292 194.875 63.6875ZM260.438 80V52.125C260.438 50.2083 260.167 48.5625 259.625 47.1875C259.083 45.8125 258.229 44.75 257.062 44C255.896 43.2083 254.333 42.8125 252.375 42.8125C250.792 42.8125 249.438 43.0833 248.312 43.625C247.188 44.1667 246.333 44.9792 245.75 46.0625C245.167 47.1458 244.875 48.5208 244.875 50.1875H223.812C223.812 47.0625 224.5 44.1667 225.875 41.5C227.292 38.7917 229.292 36.4375 231.875 34.4375C234.5 32.4375 237.625 30.8958 241.25 29.8125C244.917 28.6875 249 28.125 253.5 28.125C258.875 28.125 263.667 29.0208 267.875 30.8125C272.125 32.6042 275.479 35.2917 277.938 38.875C280.396 42.4167 281.625 46.875 281.625 52.25V79.9375C281.625 84.3542 281.875 87.7083 282.375 90C282.875 92.25 283.583 94.2292 284.5 95.9375V97H263.375C262.375 94.9167 261.625 92.375 261.125 89.375C260.667 86.3333 260.438 83.2083 260.438 80ZM263 55.6875L263.125 66.9375H253.812C251.854 66.9375 250.188 67.2083 248.812 67.75C247.479 68.2917 246.396 69.0417 245.562 70C244.771 70.9167 244.188 71.9583 243.812 73.125C243.479 74.2917 243.312 75.5208 243.312 76.8125C243.312 78.0625 243.604 79.1875 244.188 80.1875C244.812 81.1458 245.646 81.8958 246.688 82.4375C247.729 82.9792 248.896 83.25 250.188 83.25C252.521 83.25 254.5 82.8125 256.125 81.9375C257.792 81.0208 259.062 79.9167 259.938 78.625C260.812 77.3333 261.25 76.125 261.25 75L265.875 83.625C265.042 85.2917 264.083 86.9792 263 88.6875C261.958 90.3958 260.646 91.9792 259.062 93.4375C257.521 94.8542 255.625 96.0208 253.375 96.9375C251.125 97.8125 248.396 98.25 245.188 98.25C241.021 98.25 237.188 97.3958 233.688 95.6875C230.229 93.9792 227.458 91.6042 225.375 88.5625C223.292 85.4792 222.25 81.9375 222.25 77.9375C222.25 74.4375 222.875 71.3125 224.125 68.5625C225.417 65.8125 227.354 63.4792 229.938 61.5625C232.521 59.6458 235.812 58.1875 239.812 57.1875C243.812 56.1875 248.521 55.6875 253.938 55.6875H263ZM314.562 46.125V97H293.5V29.375H313.188L314.562 46.125ZM334.562 28.875L334.188 48.4375C333.354 48.3542 332.229 48.25 330.812 48.125C329.396 48 328.208 47.9375 327.25 47.9375C324.792 47.9375 322.667 48.2292 320.875 48.8125C319.125 49.3542 317.667 50.1875 316.5 51.3125C315.375 52.3958 314.542 53.7708 314 55.4375C313.5 57.1042 313.271 59.0417 313.312 61.25L309.5 58.75C309.5 54.2083 309.938 50.0833 310.812 46.375C311.729 42.625 313.021 39.3958 314.688 36.6875C316.354 33.9375 318.375 31.8333 320.75 30.375C323.125 28.875 325.792 28.125 328.75 28.125C329.792 28.125 330.812 28.1875 331.812 28.3125C332.854 28.4375 333.771 28.625 334.562 28.875ZM373.312 98.25C367.812 98.25 362.896 97.3958 358.562 95.6875C354.229 93.9375 350.562 91.5417 347.562 88.5C344.604 85.4583 342.333 81.9583 340.75 78C339.208 74.0417 338.438 69.8542 338.438 65.4375V63.0625C338.438 58.1042 339.125 53.5208 340.5 49.3125C341.875 45.0625 343.917 41.3542 346.625 38.1875C349.333 35.0208 352.729 32.5625 356.812 30.8125C360.896 29.0208 365.646 28.125 371.062 28.125C375.854 28.125 380.146 28.8958 383.938 30.4375C387.729 31.9792 390.938 34.1875 393.562 37.0625C396.229 39.9375 398.25 43.4167 399.625 47.5C401.042 51.5833 401.75 56.1667 401.75 61.25V69.8125H346.5V56.625H381.188V55C381.229 52.75 380.833 50.8333 380 49.25C379.208 47.6667 378.042 46.4583 376.5 45.625C374.958 44.7917 373.083 44.375 370.875 44.375C368.583 44.375 366.688 44.875 365.188 45.875C363.729 46.875 362.583 48.25 361.75 50C360.958 51.7083 360.396 53.6875 360.062 55.9375C359.729 58.1875 359.562 60.5625 359.562 63.0625V65.4375C359.562 67.9375 359.896 70.2083 360.562 72.25C361.271 74.2917 362.271 76.0417 363.562 77.5C364.896 78.9167 366.479 80.0208 368.312 80.8125C370.188 81.6042 372.312 82 374.688 82C377.562 82 380.396 81.4583 383.188 80.375C385.979 79.2917 388.375 77.5 390.375 75L399.938 86.375C398.562 88.3333 396.604 90.2292 394.062 92.0625C391.562 93.8958 388.562 95.3958 385.062 96.5625C381.562 97.6875 377.646 98.25 373.312 98.25ZM411.688 87.125C411.688 84.125 412.771 81.625 414.938 79.625C417.104 77.5833 419.896 76.5625 423.312 76.5625C426.771 76.5625 429.562 77.5833 431.688 79.625C433.854 81.625 434.938 84.125 434.938 87.125C434.938 90.125 433.854 92.6458 431.688 94.6875C429.562 96.6875 426.771 97.6875 423.312 97.6875C419.896 97.6875 417.104 96.6875 414.938 94.6875C412.771 92.6458 411.688 90.125 411.688 87.125Z" fill="black"/>
</svg>
